<?xml version="1.0" encoding="UTF-8" standalone="no"?><svg xmlns="http://www.w3.org/2000/svg" xmlns:xlink="http://www.w3.org/1999/xlink" fill="#000001" height="357.2" preserveAspectRatio="xMidYMid meet" version="1" viewBox="-0.6 -0.7 466.1 357.2" width="466.1" zoomAndPan="magnify"><g id="change1_1"><path d="M462.92,100.66c2.539-2.539,2.539-6.654,0.001-9.192c-2.538-2.538-6.654-2.539-9.192,0l-107.361,107.36l-91.465-91.466 c-0.021-0.021-0.044-0.038-0.065-0.058c-0.097-0.095-0.198-0.184-0.3-0.271c-0.064-0.055-0.128-0.112-0.194-0.164 c-0.095-0.075-0.193-0.145-0.292-0.214c-0.081-0.057-0.161-0.115-0.243-0.168c-0.085-0.054-0.172-0.103-0.259-0.153 c-0.1-0.058-0.2-0.117-0.303-0.169c-0.075-0.038-0.152-0.071-0.228-0.106c-0.116-0.053-0.232-0.107-0.351-0.153 c-0.074-0.029-0.149-0.052-0.224-0.078c-0.122-0.042-0.243-0.085-0.366-0.12c-0.084-0.024-0.17-0.042-0.255-0.062 c-0.115-0.027-0.229-0.056-0.344-0.077c-0.103-0.019-0.207-0.031-0.311-0.045c-0.099-0.013-0.197-0.029-0.296-0.037 c-0.122-0.011-0.245-0.014-0.369-0.018c-0.082-0.002-0.164-0.008-0.245-0.007c-0.133,0.001-0.265,0.01-0.398,0.019 c-0.075,0.005-0.15,0.008-0.225,0.015c-0.129,0.013-0.258,0.035-0.387,0.056c-0.08,0.013-0.16,0.024-0.24,0.04 c-0.115,0.023-0.228,0.054-0.342,0.083c-0.096,0.025-0.192,0.049-0.287,0.078c-0.093,0.029-0.185,0.064-0.278,0.097 c-0.115,0.041-0.229,0.083-0.341,0.131c-0.076,0.032-0.15,0.069-0.225,0.104c-0.124,0.059-0.248,0.119-0.369,0.186 c-0.025,0.014-0.05,0.024-0.075,0.038l-33.771,19.208c-9.618,5.005-20.557,5.822-30.815,2.299 c-8.756-3.008-15.961-8.814-20.689-16.581c7.434-6.071,25.603-19.781,52.207-32.497c7.214-3.448,15.337-4.439,23.49-3.975 c0.293,0.04,0.587,0.067,0.879,0.067c0.025,0,0.05-0.005,0.075-0.005c24.658,1.743,49.284,16.465,49.611,16.663 c2.588,1.574,5.922,1.152,8.036-1.02l77.303-79.436c2.504-2.573,2.447-6.688-0.125-9.191c-2.573-2.503-6.688-2.447-9.191,0.125 L290.283,77.82c-8.78-4.688-28.915-14.209-50.18-15.88c-39.52-19.276-80.606-9.291-93.506-5.304l-40.511-40.511 c-2.538-2.538-6.654-2.538-9.192,0c-2.539,2.539-2.539,6.654,0,9.192l43.356,43.356c1.804,1.804,4.503,2.381,6.893,1.485 c0.371-0.14,30.45-11.171,64.018-4.358c-0.922,0.375-1.837,0.775-2.743,1.208c-37.217,17.788-58.304,37.062-59.184,37.874 c-2.061,1.903-2.669,4.913-1.509,7.466c5.998,13.194,16.85,23.054,30.557,27.762c5.585,1.918,11.322,2.871,17.029,2.871 c8.297,0,16.53-2.014,24.138-5.999c0.066-0.035,0.132-0.071,0.197-0.108l29.566-16.816l102.155,102.156 c0.003,0.003,0.007,0.006,0.01,0.009l21.126,21.125c2.83,2.83,4.39,6.594,4.39,10.598s-1.56,7.768-4.39,10.598l-10.599,10.598 l-25.334-25.334l-6.397-6.397c-2.539-2.539-6.654-2.539-9.193,0c-2.538,2.538-2.538,6.653,0,9.192l33.93,33.929 c5.844,5.845,5.844,15.353-0.001,21.196c-2.83,2.83-6.594,4.39-10.597,4.39c-4.004,0-7.768-1.56-10.599-4.391l-6.394-6.394 c-0.001-0.001-0.002-0.003-0.004-0.004l-36.062-36.062c-2.537-2.537-6.653-2.538-9.192,0.001c-2.538,2.538-2.538,6.653,0.001,9.192 l36.062,36.062c5.845,5.844,5.845,15.352,0,21.195c-5.843,5.845-15.353,5.844-21.195,0.001l-36.062-36.062 c-0.005-0.005-0.011-0.009-0.016-0.014l-8.515-8.515c-2.537-2.539-6.653-2.539-9.192,0c-2.538,2.538-2.538,6.653,0,9.192 l20.259,20.258c5.844,5.844,5.485,15.711-0.8,21.995c-6.283,6.284-16.151,6.643-21.994,0.801l-10.599-10.598l4.88-4.88 c5.123-5.122,7.943-11.934,7.943-19.178s-2.821-14.055-7.943-19.177l-1.226-1.227c-5.487-5.486-12.759-8.118-19.965-7.911 c1.342-3.245,2.045-6.753,2.045-10.37c0-7.244-2.821-14.056-7.945-19.179l-1.225-1.225c-4.547-4.547-10.424-7.275-16.754-7.832 c0.734-2.479,1.117-5.077,1.117-7.734c0-7.244-2.821-14.055-7.944-19.178l-1.226-1.226l0,0.001 c-5.123-5.123-11.933-7.944-19.178-7.944c-2.658,0-5.256,0.383-7.734,1.117c-0.557-6.33-3.286-12.208-7.833-16.755l-1.225-1.225 c-5.123-5.123-11.933-7.944-19.177-7.944c-7.245,0-14.055,2.822-19.178,7.945L96.766,195.53l-85.67-85.669 c-2.538-2.538-6.654-2.538-9.192,0c-2.539,2.539-2.539,6.654,0,9.192l85.67,85.669l-7.229,7.229 c-10.574,10.575-10.574,27.78,0,38.355l15.807,15.807c0.329,0.328,0.685,0.613,1.059,0.856c0,0.043-0.003,0.086-0.003,0.129 c0,7.244,2.821,14.055,7.944,19.178c5.625,5.624,13.014,8.437,20.403,8.437c2.588,0,5.174-0.353,7.686-1.043 c0.42,6.58,3.177,12.708,7.88,17.412l2.324,2.325c4.985,4.984,11.532,7.477,18.08,7.476c2.361,0,4.721-0.329,7.008-0.977 c-0.077,0.839-0.12,1.684-0.12,2.537c0,7.244,2.821,14.056,7.943,19.178l1.226,1.227c5.288,5.286,12.232,7.93,19.178,7.93 s13.891-2.644,19.178-7.931l4.879-4.879l10.598,10.598c5.314,5.313,12.336,7.955,19.454,7.955c7.498,0,15.102-2.931,20.927-8.756 c4.212-4.212,6.907-9.355,8.078-14.715l7.861,7.862c5.457,5.456,12.624,8.184,19.791,8.184s14.334-2.728,19.791-8.184 c4.815-4.815,7.501-10.962,8.068-17.266c2.891,0.968,5.909,1.458,8.928,1.458c7.167,0,14.334-2.728,19.79-8.185 c8.45-8.449,10.351-21.001,5.714-31.304l11.88-11.878c10.912-10.913,10.912-28.669-0.001-39.582l-21.135-21.134l-5-5L462.92,100.66z M89.537,241.114c-5.506-5.505-5.506-14.464,0-19.969l27.099-27.1c2.667-2.667,6.213-4.136,9.985-4.136s7.318,1.469,9.985,4.136 c0,0.001,0,0.001,0.001,0.001l1.224,1.224c2.667,2.668,4.136,6.214,4.136,9.986c0,3.771-1.469,7.317-4.136,9.984l-37.083,37.084 L89.537,241.114z M114.344,277.083c-2.667-2.667-4.136-6.213-4.136-9.984c0-3.772,1.469-7.318,4.136-9.985l21.156-21.157 l11.523-11.523c0.003-0.003,0.005-0.006,0.008-0.009l5.573-5.573c2.667-2.667,6.213-4.136,9.985-4.136 c3.771,0,7.318,1.469,9.984,4.136c0,0,0,0,0,0.001l1.226,1.226c2.667,2.667,4.136,6.213,4.136,9.984s-1.469,7.317-4.136,9.985 l-37.036,37.035C130.584,283.266,120.526,283.266,114.344,277.083z M152.638,304.215l-2.324-2.325 c-2.667-2.667-4.136-6.213-4.136-9.984s1.469-7.317,4.136-9.985l13.808-13.808l13.295-13.294c2.667-2.664,6.211-4.132,9.981-4.132 c3.772,0,7.318,1.469,9.985,4.136c0,0.001,0,0.001,0.001,0.001l1.224,1.224c2.667,2.668,4.136,6.214,4.136,9.986 c0,3.771-1.469,7.317-4.136,9.985l-28.197,28.196C165.511,309.116,157.537,309.117,152.638,304.215z M186.775,333.655l-1.226-1.226 c-2.667-2.668-4.136-6.214-4.136-9.986c0-3.771,1.469-7.317,4.136-9.985l18.952-18.951c2.753-2.754,6.369-4.13,9.985-4.13 c3.616,0,7.232,1.377,9.985,4.129l1.226,1.227c2.667,2.667,4.136,6.213,4.136,9.984c0,3.772-1.469,7.318-4.136,9.986l-9.474,9.473 c-0.001,0.001-0.002,0.002-0.003,0.002s-0.002,0.002-0.002,0.003l-9.473,9.473C201.239,339.16,192.28,339.159,186.775,333.655z" fill="inherit"/></g></svg>